<?xml version="1.0" encoding="utf-8"?>
<!-- Generator: Adobe Illustrator 21.0.2, SVG Export Plug-In . SVG Version: 6.00 Build 0)  -->
<svg version="1.1" id="_x32_" xmlns="http://www.w3.org/2000/svg" xmlns:xlink="http://www.w3.org/1999/xlink" x="0px" y="0px"
	 viewBox="0 0 512 512" style="enable-background:new 0 0 512 512;" xml:space="preserve">
<style type="text/css">
	.st0{fill:#CAB388;}
</style>
<g>
	<path class="st0" d="M0,217.5c0,148.8,135.4,197.4,256.9,197.4c17.7,0,41.2,3,68.6,18.7c11.7,6.5,99.6,58.6,99.6,58.6
		c2,1.1,4.5,0.9,6.4-0.5c1.8-1.4,2.7-3.8,2.2-6c0,0-12.4-53.3-19.6-83.3c-1.8-7.4,3-7.8,7-10.4c60-38.5,91.1-98.4,91.1-173.2
		C512,97.3,408,19.2,254.9,19.2C93,19.2,0,102,0,217.5z"/>
</g>
</svg>
