<?xml version="1.0" encoding="utf-8"?>
<!-- Generator: Adobe Illustrator 17.1.0, SVG Export Plug-In . SVG Version: 6.00 Build 0)  -->
<!DOCTYPE svg PUBLIC "-//W3C//DTD SVG 1.0//EN" "http://www.w3.org/TR/2001/REC-SVG-20010904/DTD/svg10.dtd">
<svg version="1.0" id="twitter" xmlns="http://www.w3.org/2000/svg" xmlns:xlink="http://www.w3.org/1999/xlink" x="0px" y="0px"
	 viewBox="9.9 184.3 822 822" enable-background="new 9.9 184.3 822 822" xml:space="preserve">
<path fill="#FFFFFF" d="M774.5,375.9c-26,11.5-53.9,19.4-83.4,22.9c29.9-17.9,52.9-46.4,63.8-80.2c-28.1,16.6-59.2,28.8-92.2,35.2
	c-26.5-28.3-64.1-45.9-105.9-45.9c-80.2,0-145.2,65-145.2,145.2c0,11.3,1.3,22.5,3.8,33.1c-120.7-6.1-227.6-63.8-299.1-151.6
	c-12.5,21.4-19.7,46.4-19.7,73c0,50.3,25.7,94.7,64.6,120.9c-23.8-0.8-46.2-7.2-65.8-18.1v1.8c0,70.4,50,128.9,116.4,142.4
	c-12.2,3.3-25,5.1-38.3,5.1c-9.4,0-18.4-1-27.3-2.6c18.4,57.7,72,99.6,135.7,100.8c-49.7,39-112.3,62.2-180.2,62.2
	c-11.7,0-23.2-0.7-34.7-2c64.3,41.1,140.6,65.3,222.5,65.3c267,0,413.1-221.2,413.1-413.1c0-6.2-0.2-12.5-0.5-18.7
	C730.4,430.5,754.9,405,774.5,375.9L774.5,375.9z"/>
</svg>
