<svg id="レイヤー_1" data-name="レイヤー 1" xmlns="http://www.w3.org/2000/svg" viewBox="0 0 666.81 171"><defs><style>.cls-1{fill:#0f0f0f;}.cls-2{fill:#cf3d6a;}.cls-3{fill:#116899;}.cls-4{fill:#e16a19;}.cls-5{fill:#796ea6;}.cls-6{fill:#884722;}.cls-7{fill:#72c8d5;}.cls-8{fill:#7a9531;}.cls-9{fill:#338c70;}</style></defs><title>logo</title><path class="cls-1" d="M176.69,132.71V45.06h10.15V58.28c5.69-8,11.84-15.84,29.37-15.84,31.37,0,31.83,26,31.83,44.29v46H237.89V88.27c0-16.61,0-37.67-22.45-37.67-19.84,0-28.6,18.3-28.6,28v54.13Z"/><path class="cls-1" d="M334.29,132.71c-2.61-6-2.77-10-3.08-15.84-3.84,5.84-12,18.45-31.83,18.45-14.76,0-30-8.3-30-26.14,0-24,23.68-27.22,39.21-29.22,15.22-2,22.45-2.92,22.45-13.38s-10-16.3-22.14-16.3c-16,0-23.37,7.54-24.91,22.14H273.39c1.23-8.46,5.07-30,34.44-30,32.6,0,32.6,23.07,32.6,34.75v40.9c0,3.38,0,10.3,3.23,14.61ZM331.06,81a10.36,10.36,0,0,1-4.92,3.69c-2.46,1.08-4.46,1.38-23.53,4.31-8,1.23-23.37,3.54-23.37,20.45,0,8,5.07,17.84,20.6,17.84,20.14,0,31.21-17.07,31.21-26.91Z"/><path class="cls-1" d="M363.95,132.71V45.06h10.15V58.28c5.69-8,11.84-15.84,29.37-15.84,31.37,0,31.83,26,31.83,44.29v46H425.14V88.27c0-16.61,0-37.67-22.45-37.67-19.83,0-28.6,18.3-28.6,28v54.13Z"/><path class="cls-1" d="M523.23,132.71c-2.62-6-2.77-10-3.07-15.84-3.85,5.84-12,18.45-31.83,18.45-14.76,0-30-8.3-30-26.14,0-24,23.68-27.22,39.21-29.22C512.77,78,520,77,520,66.58s-10-16.3-22.14-16.3c-16,0-23.37,7.54-24.91,22.14H462.34c1.23-8.46,5.07-30,34.45-30,32.6,0,32.6,23.07,32.6,34.75v40.9c0,3.38,0,10.3,3.23,14.61ZM520,81a10.35,10.35,0,0,1-4.92,3.69c-2.46,1.08-4.46,1.38-23.53,4.31-8,1.23-23.37,3.54-23.37,20.45,0,8,5.07,17.84,20.61,17.84,20.14,0,31.21-17.07,31.21-26.91Z"/><path class="cls-1" d="M557.8,156.85V45.06h9.07V59.82a30,30,0,0,1,26.91-17.38c18,0,35.06,16.15,35.06,46.13,0,31.21-17.53,46.75-35.06,46.75-17.37,0-24.29-12.92-26.91-17.68v39.21Zm60.74-67.66c0-20.3-7.69-38.44-25.53-38.44-12,0-26,10-26,37.83,0,23.83,10.3,38.44,26.14,38.44C610.39,127,618.54,108.56,618.54,89.19Z"/><path class="cls-1" d="M666.81,20H654.66V6h12.15Zm-.92,112.71H655.73V45.06h10.15Z"/><rect class="cls-2" x="45" width="36" height="36"/><rect class="cls-3" x="90" y="135" width="36" height="36"/><rect class="cls-4" x="45" y="135" width="36" height="36"/><rect class="cls-5" x="45" y="90" width="36" height="36"/><rect class="cls-6" y="45" width="36" height="36"/><path class="cls-7" d="M72.63,36"/><rect class="cls-8" x="90" y="45" width="36" height="36"/><rect class="cls-9" x="45" y="45" width="36" height="36"/></svg>